<?xml version="1.0" encoding="UTF-8" standalone="no"?>
<!DOCTYPE svg PUBLIC "-//W3C//DTD SVG 1.1//EN"
 "http://www.w3.org/Graphics/SVG/1.1/DTD/svg11.dtd">
<!-- Generated by graphviz version 2.50.0 (20211204.2007)
 -->
<!-- Title: dependency&#45;cruiser output Pages: 1 -->
<svg width="654pt" height="350pt"
 viewBox="0.00 0.00 654.00 350.00" xmlns="http://www.w3.org/2000/svg" xmlns:xlink="http://www.w3.org/1999/xlink">
<g id="graph0" class="graph" transform="scale(1 1) rotate(0) translate(4 346)">
<title>dependency&#45;cruiser output</title>
<polygon fill="white" stroke="transparent" points="-4,4 -4,-346 650,-346 650,4 -4,4"/>
<g id="clust1" class="cluster">
<title>cluster_src</title>
<path fill="#ffffff" stroke="black" stroke-width="2" d="M20,-8C20,-8 626,-8 626,-8 632,-8 638,-14 638,-20 638,-20 638,-322 638,-322 638,-328 632,-334 626,-334 626,-334 20,-334 20,-334 14,-334 8,-328 8,-322 8,-322 8,-20 8,-20 8,-14 14,-8 20,-8"/>
<text text-anchor="middle" x="323" y="-322.8" font-family="Helvetica,sans-Serif" font-weight="bold" font-size="9.00">src</text>
</g>
<g id="clust2" class="cluster">
<title>cluster_src/demo</title>
<path fill="#ffffff" stroke="black" stroke-width="2" d="M28,-251C28,-251 79,-251 79,-251 85,-251 91,-257 91,-263 91,-263 91,-291 91,-291 91,-297 85,-303 79,-303 79,-303 28,-303 28,-303 22,-303 16,-297 16,-291 16,-291 16,-263 16,-263 16,-257 22,-251 28,-251"/>
<text text-anchor="middle" x="53.5" y="-291.8" font-family="Helvetica,sans-Serif" font-weight="bold" font-size="9.00">demo</text>
</g>
<g id="clust3" class="cluster">
<title>cluster_src/model</title>
<path fill="#ffffff" stroke="black" stroke-width="2" d="M230.5,-16C230.5,-16 408.5,-16 408.5,-16 414.5,-16 420.5,-22 420.5,-28 420.5,-28 420.5,-176 420.5,-176 420.5,-182 414.5,-188 408.5,-188 408.5,-188 230.5,-188 230.5,-188 224.5,-188 218.5,-182 218.5,-176 218.5,-176 218.5,-28 218.5,-28 218.5,-22 224.5,-16 230.5,-16"/>
<text text-anchor="middle" x="319.5" y="-176.8" font-family="Helvetica,sans-Serif" font-weight="bold" font-size="9.00">model</text>
</g>
<g id="clust4" class="cluster">
<title>cluster_src/platform</title>
<path fill="#ffffff" stroke="black" stroke-width="2" d="M28,-184C28,-184 79,-184 79,-184 85,-184 91,-190 91,-196 91,-196 91,-224 91,-224 91,-230 85,-236 79,-236 79,-236 28,-236 28,-236 22,-236 16,-230 16,-224 16,-224 16,-196 16,-196 16,-190 22,-184 28,-184"/>
<text text-anchor="middle" x="53.5" y="-224.8" font-family="Helvetica,sans-Serif" font-weight="bold" font-size="9.00">platform</text>
</g>
<g id="clust5" class="cluster">
<title>cluster_src/presenter</title>
<path fill="#ffffff" stroke="black" stroke-width="2" d="M126,-135C126,-135 183,-135 183,-135 189,-135 195,-141 195,-147 195,-147 195,-175 195,-175 195,-181 189,-187 183,-187 183,-187 126,-187 126,-187 120,-187 114,-181 114,-175 114,-175 114,-147 114,-147 114,-141 120,-135 126,-135"/>
<text text-anchor="middle" x="154.5" y="-175.8" font-family="Helvetica,sans-Serif" font-weight="bold" font-size="9.00">presenter</text>
</g>
<g id="clust6" class="cluster">
<title>cluster_src/view</title>
<path fill="#ffffff" stroke="black" stroke-width="2" d="M111,-196C111,-196 618,-196 618,-196 624,-196 630,-202 630,-208 630,-208 630,-296 630,-296 630,-302 624,-308 618,-308 618,-308 111,-308 111,-308 105,-308 99,-302 99,-296 99,-296 99,-208 99,-208 99,-202 105,-196 111,-196"/>
<text text-anchor="middle" x="364.5" y="-296.8" font-family="Helvetica,sans-Serif" font-weight="bold" font-size="9.00">view</text>
</g>
<!-- src/demo/testData.js -->
<g id="node1" class="node">
<title>src/demo/testData.js</title>
<g id="a_node1"><a xlink:href="src/demo/testData.js" xlink:title="testData.js">
<path fill="#ccffcc" stroke="black" d="M77,-277C77,-277 30,-277 30,-277 27,-277 24,-274 24,-271 24,-271 24,-265 24,-265 24,-262 27,-259 30,-259 30,-259 77,-259 77,-259 80,-259 83,-262 83,-265 83,-265 83,-271 83,-271 83,-274 80,-277 77,-277"/>
<text text-anchor="middle" x="53.5" y="-265.8" font-family="Helvetica,sans-Serif" font-size="9.00">testData.js</text>
</a>
</g>
</g>
<!-- src/model/axis.ts -->
<g id="node2" class="node">
<title>src/model/axis.ts</title>
<g id="a_node2"><a xlink:href="src/model/axis.ts" xlink:title="axis.ts">
<path fill="#ddfeff" stroke="black" d="M403.5,-42C403.5,-42 361.5,-42 361.5,-42 358.5,-42 355.5,-39 355.5,-36 355.5,-36 355.5,-30 355.5,-30 355.5,-27 358.5,-24 361.5,-24 361.5,-24 403.5,-24 403.5,-24 406.5,-24 409.5,-27 409.5,-30 409.5,-30 409.5,-36 409.5,-36 409.5,-39 406.5,-42 403.5,-42"/>
<text text-anchor="middle" x="382.5" y="-30.8" font-family="Helvetica,sans-Serif" font-size="9.00">axis.ts</text>
</a>
</g>
</g>
<!-- src/model/config.ts -->
<g id="node3" class="node">
<title>src/model/config.ts</title>
<g id="a_node3"><a xlink:href="src/model/config.ts" xlink:title="config.ts">
<path fill="#ddfeff" stroke="black" d="M403.5,-102C403.5,-102 361.5,-102 361.5,-102 358.5,-102 355.5,-99 355.5,-96 355.5,-96 355.5,-90 355.5,-90 355.5,-87 358.5,-84 361.5,-84 361.5,-84 403.5,-84 403.5,-84 406.5,-84 409.5,-87 409.5,-90 409.5,-90 409.5,-96 409.5,-96 409.5,-99 406.5,-102 403.5,-102"/>
<text text-anchor="middle" x="382.5" y="-90.8" font-family="Helvetica,sans-Serif" font-size="9.00">config.ts</text>
</a>
</g>
</g>
<!-- src/model/graphModel.ts -->
<g id="node4" class="node">
<title>src/model/graphModel.ts</title>
<g id="a_node4"><a xlink:href="src/model/graphModel.ts" xlink:title="graphModel.ts">
<path fill="#ddfeff" stroke="black" d="M295.5,-133C295.5,-133 232.5,-133 232.5,-133 229.5,-133 226.5,-130 226.5,-127 226.5,-127 226.5,-121 226.5,-121 226.5,-118 229.5,-115 232.5,-115 232.5,-115 295.5,-115 295.5,-115 298.5,-115 301.5,-118 301.5,-121 301.5,-121 301.5,-127 301.5,-127 301.5,-130 298.5,-133 295.5,-133"/>
<text text-anchor="middle" x="264" y="-121.8" font-family="Helvetica,sans-Serif" font-size="9.00">graphModel.ts</text>
</a>
</g>
</g>
<!-- src/model/graphModel.ts&#45;&gt;src/model/config.ts -->
<g id="edge1" class="edge">
<title>src/model/graphModel.ts&#45;&gt;src/model/config.ts</title>
<path fill="none" stroke="#000000" stroke-width="2" stroke-opacity="0.200000" d="M299.01,-114.95C314.9,-110.72 333.72,-105.71 349.37,-101.55"/>
<polygon fill="#000000" fill-opacity="0.200000" stroke="#000000" stroke-width="2" stroke-opacity="0.200000" points="350.16,-103.51 355.42,-99.94 349.08,-99.45 350.16,-103.51"/>
</g>
<!-- src/model/lineData.ts -->
<g id="node5" class="node">
<title>src/model/lineData.ts</title>
<g id="a_node5"><a xlink:href="src/model/lineData.ts" xlink:title="lineData.ts">
<path fill="#ddfeff" stroke="black" d="M406.5,-132C406.5,-132 358.5,-132 358.5,-132 355.5,-132 352.5,-129 352.5,-126 352.5,-126 352.5,-120 352.5,-120 352.5,-117 355.5,-114 358.5,-114 358.5,-114 406.5,-114 406.5,-114 409.5,-114 412.5,-117 412.5,-120 412.5,-120 412.5,-126 412.5,-126 412.5,-129 409.5,-132 406.5,-132"/>
<text text-anchor="middle" x="382.5" y="-120.8" font-family="Helvetica,sans-Serif" font-size="9.00">lineData.ts</text>
</a>
</g>
</g>
<!-- src/model/graphModel.ts&#45;&gt;src/model/lineData.ts -->
<g id="edge2" class="edge">
<title>src/model/graphModel.ts&#45;&gt;src/model/lineData.ts</title>
<path fill="none" stroke="#000000" stroke-width="2" stroke-opacity="0.200000" d="M301.54,-123.69C315.78,-123.56 332.03,-123.42 346.15,-123.3"/>
<polygon fill="#000000" fill-opacity="0.200000" stroke="#000000" stroke-width="2" stroke-opacity="0.200000" points="346.49,-125.4 352.47,-123.25 346.45,-121.2 346.49,-125.4"/>
</g>
<!-- src/model/model.ts -->
<g id="node6" class="node">
<title>src/model/model.ts</title>
<g id="a_node6"><a xlink:href="src/model/model.ts" xlink:title="model.ts">
<path fill="#ddfeff" stroke="black" d="M403.5,-162C403.5,-162 361.5,-162 361.5,-162 358.5,-162 355.5,-159 355.5,-156 355.5,-156 355.5,-150 355.5,-150 355.5,-147 358.5,-144 361.5,-144 361.5,-144 403.5,-144 403.5,-144 406.5,-144 409.5,-147 409.5,-150 409.5,-150 409.5,-156 409.5,-156 409.5,-159 406.5,-162 403.5,-162"/>
<text text-anchor="middle" x="382.5" y="-150.8" font-family="Helvetica,sans-Serif" font-size="9.00">model.ts</text>
</a>
</g>
</g>
<!-- src/model/graphModel.ts&#45;&gt;src/model/model.ts -->
<g id="edge3" class="edge">
<title>src/model/graphModel.ts&#45;&gt;src/model/model.ts</title>
<path fill="none" stroke="#000000" stroke-width="2" stroke-opacity="0.200000" d="M301.22,-133.02C316.54,-136.83 334.23,-141.23 349.1,-144.94"/>
<polygon fill="#000000" fill-opacity="0.200000" stroke="#000000" stroke-width="2" stroke-opacity="0.200000" points="348.96,-147.06 355.29,-146.48 349.97,-142.99 348.96,-147.06"/>
</g>
<!-- src/util.ts -->
<g id="node9" class="node">
<title>src/util.ts</title>
<g id="a_node9"><a xlink:href="src/util.ts" xlink:title="util.ts">
<path fill="#ddfeff" stroke="black" d="M514.5,-132C514.5,-132 472.5,-132 472.5,-132 469.5,-132 466.5,-129 466.5,-126 466.5,-126 466.5,-120 466.5,-120 466.5,-117 469.5,-114 472.5,-114 472.5,-114 514.5,-114 514.5,-114 517.5,-114 520.5,-117 520.5,-120 520.5,-120 520.5,-126 520.5,-126 520.5,-129 517.5,-132 514.5,-132"/>
<text text-anchor="middle" x="493.5" y="-120.8" font-family="Helvetica,sans-Serif" font-size="9.00">util.ts</text>
</a>
</g>
</g>
<!-- src/model/lineData.ts&#45;&gt;src/util.ts -->
<g id="edge9" class="edge">
<title>src/model/lineData.ts&#45;&gt;src/util.ts</title>
<path fill="none" stroke="#000000" stroke-width="2" stroke-opacity="0.200000" d="M412.71,-123C427.28,-123 444.94,-123 459.94,-123"/>
<polygon fill="#000000" fill-opacity="0.200000" stroke="#000000" stroke-width="2" stroke-opacity="0.200000" points="460.19,-125.1 466.19,-123 460.19,-120.9 460.19,-125.1"/>
</g>
<!-- src/model/index.ts -->
<g id="node7" class="node">
<title>src/model/index.ts</title>
<g id="a_node7"><a xlink:href="src/model/index.ts" xlink:title="index.ts">
<path fill="#ddfeff" stroke="black" d="M285,-102C285,-102 243,-102 243,-102 240,-102 237,-99 237,-96 237,-96 237,-90 237,-90 237,-87 240,-84 243,-84 243,-84 285,-84 285,-84 288,-84 291,-87 291,-90 291,-90 291,-96 291,-96 291,-99 288,-102 285,-102"/>
<text text-anchor="middle" x="264" y="-90.8" font-family="Helvetica,sans-Serif" font-size="9.00">index.ts</text>
</a>
</g>
</g>
<!-- src/model/index.ts&#45;&gt;src/model/axis.ts -->
<g id="edge4" class="edge">
<title>src/model/index.ts&#45;&gt;src/model/axis.ts</title>
<path fill="none" stroke="#000000" stroke-width="2" stroke-opacity="0.200000" d="M275.02,-83.75C286.52,-73.6 306.33,-57.5 326,-48 333.31,-44.47 341.57,-41.67 349.44,-39.49"/>
<polygon fill="#000000" fill-opacity="0.200000" stroke="#000000" stroke-width="2" stroke-opacity="0.200000" points="350.09,-41.5 355.36,-37.95 349.03,-37.43 350.09,-41.5"/>
</g>
<!-- src/model/index.ts&#45;&gt;src/model/config.ts -->
<g id="edge5" class="edge">
<title>src/model/index.ts&#45;&gt;src/model/config.ts</title>
<path fill="none" stroke="#000000" stroke-width="2" stroke-opacity="0.200000" d="M291.14,-93C308.38,-93 331.08,-93 349.41,-93"/>
<polygon fill="#000000" fill-opacity="0.200000" stroke="#000000" stroke-width="2" stroke-opacity="0.200000" points="349.44,-95.1 355.44,-93 349.44,-90.9 349.44,-95.1"/>
</g>
<!-- src/model/index.ts&#45;&gt;src/model/lineData.ts -->
<g id="edge6" class="edge">
<title>src/model/index.ts&#45;&gt;src/model/lineData.ts</title>
<path fill="none" stroke="#000000" stroke-width="2" stroke-opacity="0.200000" d="M291.14,-99.73C307.42,-103.92 328.55,-109.37 346.29,-113.93"/>
<polygon fill="#000000" fill-opacity="0.200000" stroke="#000000" stroke-width="2" stroke-opacity="0.200000" points="345.83,-115.98 352.16,-115.45 346.88,-111.92 345.83,-115.98"/>
</g>
<!-- src/model/index.ts&#45;&gt;src/model/model.ts -->
<g id="edge7" class="edge">
<title>src/model/index.ts&#45;&gt;src/model/model.ts</title>
<path fill="none" stroke="#000000" stroke-width="2" stroke-opacity="0.200000" d="M291.48,-97.61C299.12,-99.99 307.01,-103.58 313,-109 323.47,-118.48 315.26,-128.83 326,-138 332.47,-143.53 340.79,-147.03 349.01,-149.26"/>
<polygon fill="#000000" fill-opacity="0.200000" stroke="#000000" stroke-width="2" stroke-opacity="0.200000" points="348.92,-151.39 355.24,-150.72 349.87,-147.3 348.92,-151.39"/>
</g>
<!-- src/model/tics.ts -->
<g id="node8" class="node">
<title>src/model/tics.ts</title>
<g id="a_node8"><a xlink:href="src/model/tics.ts" xlink:title="tics.ts">
<path fill="#ddfeff" stroke="black" d="M403.5,-72C403.5,-72 361.5,-72 361.5,-72 358.5,-72 355.5,-69 355.5,-66 355.5,-66 355.5,-60 355.5,-60 355.5,-57 358.5,-54 361.5,-54 361.5,-54 403.5,-54 403.5,-54 406.5,-54 409.5,-57 409.5,-60 409.5,-60 409.5,-66 409.5,-66 409.5,-69 406.5,-72 403.5,-72"/>
<text text-anchor="middle" x="382.5" y="-60.8" font-family="Helvetica,sans-Serif" font-size="9.00">tics.ts</text>
</a>
</g>
</g>
<!-- src/model/index.ts&#45;&gt;src/model/tics.ts -->
<g id="edge8" class="edge">
<title>src/model/index.ts&#45;&gt;src/model/tics.ts</title>
<path fill="none" stroke="#000000" stroke-width="2" stroke-opacity="0.200000" d="M291.14,-86.27C308.38,-81.83 331.08,-75.98 349.41,-71.26"/>
<polygon fill="#000000" fill-opacity="0.200000" stroke="#000000" stroke-width="2" stroke-opacity="0.200000" points="350.16,-73.24 355.44,-69.71 349.11,-69.17 350.16,-73.24"/>
</g>
<!-- src/platform/platform.ts -->
<g id="node10" class="node">
<title>src/platform/platform.ts</title>
<g id="a_node10"><a xlink:href="src/platform/platform.ts" xlink:title="platform.ts">
<path fill="#ccffcc" stroke="black" d="M77,-210C77,-210 30,-210 30,-210 27,-210 24,-207 24,-204 24,-204 24,-198 24,-198 24,-195 27,-192 30,-192 30,-192 77,-192 77,-192 80,-192 83,-195 83,-198 83,-198 83,-204 83,-204 83,-207 80,-210 77,-210"/>
<text text-anchor="middle" x="53.5" y="-198.8" font-family="Helvetica,sans-Serif" font-size="9.00">platform.ts</text>
</a>
</g>
</g>
<!-- src/plotta.ts -->
<g id="node11" class="node">
<title>src/plotta.ts</title>
<g id="a_node11"><a xlink:href="src/plotta.ts" xlink:title="plotta.ts">
<path fill="#ddfeff" stroke="black" d="M74.5,-161C74.5,-161 32.5,-161 32.5,-161 29.5,-161 26.5,-158 26.5,-155 26.5,-155 26.5,-149 26.5,-149 26.5,-146 29.5,-143 32.5,-143 32.5,-143 74.5,-143 74.5,-143 77.5,-143 80.5,-146 80.5,-149 80.5,-149 80.5,-155 80.5,-155 80.5,-158 77.5,-161 74.5,-161"/>
<text text-anchor="middle" x="53.5" y="-149.8" font-family="Helvetica,sans-Serif" font-size="9.00">plotta.ts</text>
</a>
</g>
</g>
<!-- src/plotta.ts&#45;&gt;src/model/graphModel.ts -->
<g id="edge10" class="edge">
<title>src/plotta.ts&#45;&gt;src/model/graphModel.ts</title>
<path fill="none" stroke="#000000" stroke-width="2" stroke-opacity="0.200000" d="M70.88,-142.86C79.07,-138.76 89.28,-134.33 99,-132 139.32,-122.32 186.76,-121.06 220.22,-121.77"/>
<polygon fill="#000000" fill-opacity="0.200000" stroke="#000000" stroke-width="2" stroke-opacity="0.200000" points="220.25,-123.87 226.3,-121.93 220.35,-119.68 220.25,-123.87"/>
</g>
<!-- src/presenter/presenter.ts -->
<g id="node12" class="node">
<title>src/presenter/presenter.ts</title>
<g id="a_node12"><a xlink:href="src/presenter/presenter.ts" xlink:title="presenter.ts">
<path fill="#ddfeff" stroke="black" d="M181,-161C181,-161 128,-161 128,-161 125,-161 122,-158 122,-155 122,-155 122,-149 122,-149 122,-146 125,-143 128,-143 128,-143 181,-143 181,-143 184,-143 187,-146 187,-149 187,-149 187,-155 187,-155 187,-158 184,-161 181,-161"/>
<text text-anchor="middle" x="154.5" y="-149.8" font-family="Helvetica,sans-Serif" font-size="9.00">presenter.ts</text>
</a>
</g>
</g>
<!-- src/plotta.ts&#45;&gt;src/presenter/presenter.ts -->
<g id="edge11" class="edge">
<title>src/plotta.ts&#45;&gt;src/presenter/presenter.ts</title>
<path fill="none" stroke="#000000" stroke-width="2" stroke-opacity="0.200000" d="M80.51,-152C91.24,-152 103.89,-152 115.62,-152"/>
<polygon fill="#000000" fill-opacity="0.200000" stroke="#000000" stroke-width="2" stroke-opacity="0.200000" points="115.66,-154.1 121.66,-152 115.66,-149.9 115.66,-154.1"/>
</g>
<!-- src/view/graphView.ts -->
<g id="node13" class="node">
<title>src/view/graphView.ts</title>
<g id="a_node13"><a xlink:href="src/view/graphView.ts" xlink:title="graphView.ts">
<path fill="#ddfeff" stroke="black" d="M183,-282C183,-282 126,-282 126,-282 123,-282 120,-279 120,-276 120,-276 120,-270 120,-270 120,-267 123,-264 126,-264 126,-264 183,-264 183,-264 186,-264 189,-267 189,-270 189,-270 189,-276 189,-276 189,-279 186,-282 183,-282"/>
<text text-anchor="middle" x="154.5" y="-270.8" font-family="Helvetica,sans-Serif" font-size="9.00">graphView.ts</text>
</a>
</g>
</g>
<!-- src/plotta.ts&#45;&gt;src/view/graphView.ts -->
<g id="edge12" class="edge">
<title>src/plotta.ts&#45;&gt;src/view/graphView.ts</title>
<path fill="none" stroke="#000000" stroke-width="2" stroke-opacity="0.200000" d="M71.26,-161.15C78.57,-166.04 86.49,-172.77 91,-181 99.27,-196.09 87.88,-244.87 99,-258 103,-262.72 108.33,-266.02 114.09,-268.32"/>
<polygon fill="#000000" fill-opacity="0.200000" stroke="#000000" stroke-width="2" stroke-opacity="0.200000" points="113.61,-270.38 119.97,-270.3 114.95,-266.4 113.61,-270.38"/>
</g>
<!-- src/view/graphView.ts&#45;&gt;src/model/model.ts -->
<g id="edge16" class="edge">
<title>src/view/graphView.ts&#45;&gt;src/model/model.ts</title>
<path fill="none" stroke="#000000" stroke-width="2" stroke-opacity="0.200000" d="M189.3,-266.51C194.02,-264.42 198.46,-261.65 202,-258 216.49,-243.05 200.76,-228.19 215,-213 250.46,-175.17 311.51,-161.15 349.01,-155.98"/>
<polygon fill="#000000" fill-opacity="0.200000" stroke="#000000" stroke-width="2" stroke-opacity="0.200000" points="349.59,-158.02 355.27,-155.17 349.05,-153.85 349.59,-158.02"/>
</g>
<!-- src/view/graphCanvas.ts -->
<g id="node17" class="node">
<title>src/view/graphCanvas.ts</title>
<g id="a_node17"><a xlink:href="src/view/graphCanvas.ts" xlink:title="graphCanvas.ts">
<path fill="#ddfeff" stroke="black" d="M298.5,-282C298.5,-282 229.5,-282 229.5,-282 226.5,-282 223.5,-279 223.5,-276 223.5,-276 223.5,-270 223.5,-270 223.5,-267 226.5,-264 229.5,-264 229.5,-264 298.5,-264 298.5,-264 301.5,-264 304.5,-267 304.5,-270 304.5,-270 304.5,-276 304.5,-276 304.5,-279 301.5,-282 298.5,-282"/>
<text text-anchor="middle" x="264" y="-270.8" font-family="Helvetica,sans-Serif" font-size="9.00">graphCanvas.ts</text>
</a>
</g>
</g>
<!-- src/view/graphView.ts&#45;&gt;src/view/graphCanvas.ts -->
<g id="edge17" class="edge">
<title>src/view/graphView.ts&#45;&gt;src/view/graphCanvas.ts</title>
<path fill="none" stroke="#000000" stroke-width="2" stroke-opacity="0.200000" d="M189.22,-273C198.11,-273 207.85,-273 217.26,-273"/>
<polygon fill="#000000" fill-opacity="0.200000" stroke="#000000" stroke-width="2" stroke-opacity="0.200000" points="217.38,-275.1 223.38,-273 217.38,-270.9 217.38,-275.1"/>
</g>
<!-- src/view/viewModelHelper.ts -->
<g id="node18" class="node">
<title>src/view/viewModelHelper.ts</title>
<g id="a_node18"><a xlink:href="src/view/viewModelHelper.ts" xlink:title="viewModelHelper.ts">
<path fill="#ddfeff" stroke="black" d="M307,-237C307,-237 221,-237 221,-237 218,-237 215,-234 215,-231 215,-231 215,-225 215,-225 215,-222 218,-219 221,-219 221,-219 307,-219 307,-219 310,-219 313,-222 313,-225 313,-225 313,-231 313,-231 313,-234 310,-237 307,-237"/>
<text text-anchor="middle" x="264" y="-225.8" font-family="Helvetica,sans-Serif" font-size="9.00">viewModelHelper.ts</text>
</a>
</g>
</g>
<!-- src/view/graphView.ts&#45;&gt;src/view/viewModelHelper.ts -->
<g id="edge18" class="edge">
<title>src/view/graphView.ts&#45;&gt;src/view/viewModelHelper.ts</title>
<path fill="none" stroke="#000000" stroke-width="2" stroke-opacity="0.200000" d="M185.75,-263.95C191.21,-262.11 196.81,-260.1 202,-258 215.16,-252.67 229.43,-245.73 240.85,-239.86"/>
<polygon fill="#000000" fill-opacity="0.200000" stroke="#000000" stroke-width="2" stroke-opacity="0.200000" points="241.85,-241.71 246.21,-237.08 239.92,-237.98 241.85,-241.71"/>
</g>
<!-- src/view/canvasHelper.ts -->
<g id="node14" class="node">
<title>src/view/canvasHelper.ts</title>
<g id="a_node14"><a xlink:href="src/view/canvasHelper.ts" xlink:title="canvasHelper.ts">
<path fill="#ddfeff" stroke="black" d="M529,-282C529,-282 458,-282 458,-282 455,-282 452,-279 452,-276 452,-276 452,-270 452,-270 452,-267 455,-264 458,-264 458,-264 529,-264 529,-264 532,-264 535,-267 535,-270 535,-270 535,-276 535,-276 535,-279 532,-282 529,-282"/>
<text text-anchor="middle" x="493.5" y="-270.8" font-family="Helvetica,sans-Serif" font-size="9.00">canvasHelper.ts</text>
</a>
</g>
</g>
<!-- src/view/drawHelper.ts -->
<g id="node15" class="node">
<title>src/view/drawHelper.ts</title>
<g id="a_node15"><a xlink:href="src/view/drawHelper.ts" xlink:title="drawHelper.ts">
<path fill="#ddfeff" stroke="black" d="M616,-267C616,-267 554,-267 554,-267 551,-267 548,-264 548,-261 548,-261 548,-255 548,-255 548,-252 551,-249 554,-249 554,-249 616,-249 616,-249 619,-249 622,-252 622,-255 622,-255 622,-261 622,-261 622,-264 619,-267 616,-267"/>
<text text-anchor="middle" x="585" y="-255.8" font-family="Helvetica,sans-Serif" font-size="9.00">drawHelper.ts</text>
</a>
</g>
</g>
<!-- src/view/canvasHelper.ts&#45;&gt;src/view/drawHelper.ts -->
<g id="edge13" class="edge">
<title>src/view/canvasHelper.ts&#45;&gt;src/view/drawHelper.ts</title>
<path fill="none" stroke="#000000" stroke-width="2" stroke-opacity="0.200000" d="M535.06,-266.2C537.32,-265.82 539.6,-265.44 541.86,-265.06"/>
<polygon fill="#000000" fill-opacity="0.200000" stroke="#000000" stroke-width="2" stroke-opacity="0.200000" points="542.25,-267.13 547.82,-264.06 541.56,-262.98 542.25,-267.13"/>
</g>
<!-- src/view/canvasHelperFactory.ts -->
<g id="node16" class="node">
<title>src/view/canvasHelperFactory.ts</title>
<g id="a_node16"><a xlink:href="src/view/canvasHelperFactory.ts" xlink:title="canvasHelperFactory.ts">
<path fill="#ddfeff" stroke="black" d="M433,-282C433,-282 332,-282 332,-282 329,-282 326,-279 326,-276 326,-276 326,-270 326,-270 326,-267 329,-264 332,-264 332,-264 433,-264 433,-264 436,-264 439,-267 439,-270 439,-270 439,-276 439,-276 439,-279 436,-282 433,-282"/>
<text text-anchor="middle" x="382.5" y="-270.8" font-family="Helvetica,sans-Serif" font-size="9.00">canvasHelperFactory.ts</text>
</a>
</g>
</g>
<!-- src/view/canvasHelperFactory.ts&#45;&gt;src/view/canvasHelper.ts -->
<g id="edge14" class="edge">
<title>src/view/canvasHelperFactory.ts&#45;&gt;src/view/canvasHelper.ts</title>
<path fill="none" stroke="#000000" stroke-width="2" stroke-opacity="0.200000" d="M439.28,-273C441.37,-273 443.46,-273 445.54,-273"/>
<polygon fill="#000000" fill-opacity="0.200000" stroke="#000000" stroke-width="2" stroke-opacity="0.200000" points="445.72,-275.1 451.72,-273 445.72,-270.9 445.72,-275.1"/>
</g>
<!-- src/view/graphCanvas.ts&#45;&gt;src/view/canvasHelperFactory.ts -->
<g id="edge15" class="edge">
<title>src/view/graphCanvas.ts&#45;&gt;src/view/canvasHelperFactory.ts</title>
<path fill="none" stroke="#000000" stroke-width="2" stroke-opacity="0.200000" d="M304.77,-273C309.49,-273 314.4,-273 319.35,-273"/>
<polygon fill="#000000" fill-opacity="0.200000" stroke="#000000" stroke-width="2" stroke-opacity="0.200000" points="319.62,-275.1 325.62,-273 319.62,-270.9 319.62,-275.1"/>
</g>
<!-- src/view/viewModelHelper.ts&#45;&gt;src/model/model.ts -->
<g id="edge20" class="edge">
<title>src/view/viewModelHelper.ts&#45;&gt;src/model/model.ts</title>
<path fill="none" stroke="#000000" stroke-width="2" stroke-opacity="0.200000" d="M279.29,-218.8C300.1,-205.4 338.81,-180.48 362.16,-165.45"/>
<polygon fill="#000000" fill-opacity="0.200000" stroke="#000000" stroke-width="2" stroke-opacity="0.200000" points="363.55,-167.05 367.46,-162.04 361.28,-163.52 363.55,-167.05"/>
</g>
<!-- src/view/osCanvasHelper.ts -->
<g id="node19" class="node">
<title>src/view/osCanvasHelper.ts</title>
<g id="a_node19"><a xlink:href="src/view/osCanvasHelper.ts" xlink:title="osCanvasHelper.ts">
<path fill="#ccffcc" stroke="black" d="M196,-252C196,-252 113,-252 113,-252 110,-252 107,-249 107,-246 107,-246 107,-240 107,-240 107,-237 110,-234 113,-234 113,-234 196,-234 196,-234 199,-234 202,-237 202,-240 202,-240 202,-246 202,-246 202,-249 199,-252 196,-252"/>
<text text-anchor="middle" x="154.5" y="-240.8" font-family="Helvetica,sans-Serif" font-size="9.00">osCanvasHelper.ts</text>
</a>
</g>
</g>
<!-- src/view/osWorker.ts -->
<g id="node20" class="node">
<title>src/view/osWorker.ts</title>
<g id="a_node20"><a xlink:href="src/view/osWorker.ts" xlink:title="osWorker.ts">
<path fill="#ddfeff" stroke="black" d="M520,-252C520,-252 467,-252 467,-252 464,-252 461,-249 461,-246 461,-246 461,-240 461,-240 461,-237 464,-234 467,-234 467,-234 520,-234 520,-234 523,-234 526,-237 526,-240 526,-240 526,-246 526,-246 526,-249 523,-252 520,-252"/>
<text text-anchor="middle" x="493.5" y="-240.8" font-family="Helvetica,sans-Serif" font-size="9.00">osWorker.ts</text>
</a>
</g>
</g>
<!-- src/view/osWorker.ts&#45;&gt;src/view/drawHelper.ts -->
<g id="edge19" class="edge">
<title>src/view/osWorker.ts&#45;&gt;src/view/drawHelper.ts</title>
<path fill="none" stroke="#000000" stroke-width="2" stroke-opacity="0.200000" d="M526.05,-248.29C531.12,-249.14 536.43,-250.03 541.7,-250.91"/>
<polygon fill="#000000" fill-opacity="0.200000" stroke="#000000" stroke-width="2" stroke-opacity="0.200000" points="541.58,-253.02 547.84,-251.94 542.27,-248.88 541.58,-253.02"/>
</g>
<!-- src/view/viewModel.ts -->
<g id="node21" class="node">
<title>src/view/viewModel.ts</title>
<g id="a_node21"><a xlink:href="src/view/viewModel.ts" xlink:title="viewModel.ts">
<path fill="#ccffcc" stroke="black" d="M183.5,-222C183.5,-222 125.5,-222 125.5,-222 122.5,-222 119.5,-219 119.5,-216 119.5,-216 119.5,-210 119.5,-210 119.5,-207 122.5,-204 125.5,-204 125.5,-204 183.5,-204 183.5,-204 186.5,-204 189.5,-207 189.5,-210 189.5,-210 189.5,-216 189.5,-216 189.5,-219 186.5,-222 183.5,-222"/>
<text text-anchor="middle" x="154.5" y="-210.8" font-family="Helvetica,sans-Serif" font-size="9.00">viewModel.ts</text>
</a>
</g>
</g>
</g>
</svg>
