<?xml version="1.0" encoding="UTF-8" standalone="no"?>
<!DOCTYPE svg PUBLIC "-//W3C//DTD SVG 1.1//EN"
 "http://www.w3.org/Graphics/SVG/1.1/DTD/svg11.dtd">
<!-- Generated by graphviz version 2.50.0 (20211204.2007)
 -->
<!-- Title: dependency&#45;cruiser output Pages: 1 -->
<svg width="813pt" height="344pt"
 viewBox="0.00 0.00 813.00 344.00" xmlns="http://www.w3.org/2000/svg" xmlns:xlink="http://www.w3.org/1999/xlink">
<g id="graph0" class="graph" transform="scale(1 1) rotate(0) translate(4 340)">
<title>dependency&#45;cruiser output</title>
<polygon fill="white" stroke="transparent" points="-4,4 -4,-340 809,-340 809,4 -4,4"/>
<g id="clust1" class="cluster">
<title>cluster_src</title>
<path fill="#ffffff" stroke="black" stroke-width="2" d="M20,-8C20,-8 785,-8 785,-8 791,-8 797,-14 797,-20 797,-20 797,-316 797,-316 797,-322 791,-328 785,-328 785,-328 20,-328 20,-328 14,-328 8,-322 8,-316 8,-316 8,-20 8,-20 8,-14 14,-8 20,-8"/>
<text text-anchor="middle" x="402.5" y="-316.8" font-family="Helvetica,sans-Serif" font-weight="bold" font-size="9.00">src</text>
</g>
<g id="clust2" class="cluster">
<title>cluster_src/demo</title>
<path fill="#ffffff" stroke="black" stroke-width="2" d="M28,-216C28,-216 79,-216 79,-216 85,-216 91,-222 91,-228 91,-228 91,-256 91,-256 91,-262 85,-268 79,-268 79,-268 28,-268 28,-268 22,-268 16,-262 16,-256 16,-256 16,-228 16,-228 16,-222 22,-216 28,-216"/>
<text text-anchor="middle" x="53.5" y="-256.8" font-family="Helvetica,sans-Serif" font-weight="bold" font-size="9.00">demo</text>
</g>
<g id="clust3" class="cluster">
<title>cluster_src/model</title>
<path fill="#ffffff" stroke="black" stroke-width="2" d="M111,-50C111,-50 346.5,-50 346.5,-50 352.5,-50 358.5,-56 358.5,-62 358.5,-62 358.5,-120 358.5,-120 358.5,-126 352.5,-132 346.5,-132 346.5,-132 111,-132 111,-132 105,-132 99,-126 99,-120 99,-120 99,-62 99,-62 99,-56 105,-50 111,-50"/>
<text text-anchor="middle" x="228.75" y="-120.8" font-family="Helvetica,sans-Serif" font-weight="bold" font-size="9.00">model</text>
</g>
<g id="clust4" class="cluster">
<title>cluster_src/platform</title>
<path fill="#ffffff" stroke="black" stroke-width="2" d="M525,-250C525,-250 576,-250 576,-250 582,-250 588,-256 588,-262 588,-262 588,-290 588,-290 588,-296 582,-302 576,-302 576,-302 525,-302 525,-302 519,-302 513,-296 513,-290 513,-290 513,-262 513,-262 513,-256 519,-250 525,-250"/>
<text text-anchor="middle" x="550.5" y="-290.8" font-family="Helvetica,sans-Serif" font-weight="bold" font-size="9.00">platform</text>
</g>
<g id="clust5" class="cluster">
<title>cluster_src/presenter</title>
<path fill="#ffffff" stroke="black" stroke-width="2" d="M116,-140C116,-140 173,-140 173,-140 179,-140 185,-146 185,-152 185,-152 185,-180 185,-180 185,-186 179,-192 173,-192 173,-192 116,-192 116,-192 110,-192 104,-186 104,-180 104,-180 104,-152 104,-152 104,-146 110,-140 116,-140"/>
<text text-anchor="middle" x="144.5" y="-180.8" font-family="Helvetica,sans-Serif" font-weight="bold" font-size="9.00">presenter</text>
</g>
<g id="clust6" class="cluster">
<title>cluster_src/view</title>
<path fill="#ffffff" stroke="black" stroke-width="2" d="M205,-160C205,-160 777,-160 777,-160 783,-160 789,-166 789,-172 789,-172 789,-230 789,-230 789,-236 783,-242 777,-242 777,-242 205,-242 205,-242 199,-242 193,-236 193,-230 193,-230 193,-172 193,-172 193,-166 199,-160 205,-160"/>
<text text-anchor="middle" x="491" y="-230.8" font-family="Helvetica,sans-Serif" font-weight="bold" font-size="9.00">view</text>
</g>
<!-- src/demo/testData.js -->
<g id="node1" class="node">
<title>src/demo/testData.js</title>
<g id="a_node1"><a xlink:href="src/demo/testData.js" xlink:title="testData.js">
<path fill="#ccffcc" stroke="black" d="M77,-242C77,-242 30,-242 30,-242 27,-242 24,-239 24,-236 24,-236 24,-230 24,-230 24,-227 27,-224 30,-224 30,-224 77,-224 77,-224 80,-224 83,-227 83,-230 83,-230 83,-236 83,-236 83,-239 80,-242 77,-242"/>
<text text-anchor="middle" x="53.5" y="-230.8" font-family="Helvetica,sans-Serif" font-size="9.00">testData.js</text>
</a>
</g>
</g>
<!-- src/model/axis.js -->
<g id="node2" class="node">
<title>src/model/axis.js</title>
<g id="a_node2"><a xlink:href="src/model/axis.js" xlink:title="axis.js">
<path fill="#ffffcc" stroke="black" d="M344.5,-76C344.5,-76 302.5,-76 302.5,-76 299.5,-76 296.5,-73 296.5,-70 296.5,-70 296.5,-64 296.5,-64 296.5,-61 299.5,-58 302.5,-58 302.5,-58 344.5,-58 344.5,-58 347.5,-58 350.5,-61 350.5,-64 350.5,-64 350.5,-70 350.5,-70 350.5,-73 347.5,-76 344.5,-76"/>
<text text-anchor="middle" x="323.5" y="-64.8" font-family="Helvetica,sans-Serif" font-size="9.00">axis.js</text>
</a>
</g>
</g>
<!-- src/util.js -->
<g id="node3" class="node">
<title>src/util.js</title>
<g id="a_node3"><a xlink:href="src/util.js" xlink:title="util.js">
<path fill="#ffffcc" stroke="black" d="M454.5,-106C454.5,-106 412.5,-106 412.5,-106 409.5,-106 406.5,-103 406.5,-100 406.5,-100 406.5,-94 406.5,-94 406.5,-91 409.5,-88 412.5,-88 412.5,-88 454.5,-88 454.5,-88 457.5,-88 460.5,-91 460.5,-94 460.5,-94 460.5,-100 460.5,-100 460.5,-103 457.5,-106 454.5,-106"/>
<text text-anchor="middle" x="433.5" y="-94.8" font-family="Helvetica,sans-Serif" font-size="9.00">util.js</text>
</a>
</g>
</g>
<!-- src/model/axis.js&#45;&gt;src/util.js -->
<g id="edge1" class="edge">
<title>src/model/axis.js&#45;&gt;src/util.js</title>
<path fill="none" stroke="#000000" stroke-width="2" stroke-opacity="0.200000" d="M350.64,-74.26C365.52,-78.4 384.29,-83.61 400.1,-88"/>
<polygon fill="#000000" fill-opacity="0.200000" stroke="#000000" stroke-width="2" stroke-opacity="0.200000" points="399.88,-90.12 406.22,-89.7 401,-86.07 399.88,-90.12"/>
</g>
<!-- src/model/config.js -->
<g id="node4" class="node">
<title>src/model/config.js</title>
<g id="a_node4"><a xlink:href="src/model/config.js" xlink:title="config.js">
<path fill="#ffffcc" stroke="black" d="M256.5,-106C256.5,-106 214.5,-106 214.5,-106 211.5,-106 208.5,-103 208.5,-100 208.5,-100 208.5,-94 208.5,-94 208.5,-91 211.5,-88 214.5,-88 214.5,-88 256.5,-88 256.5,-88 259.5,-88 262.5,-91 262.5,-94 262.5,-94 262.5,-100 262.5,-100 262.5,-103 259.5,-106 256.5,-106"/>
<text text-anchor="middle" x="235.5" y="-94.8" font-family="Helvetica,sans-Serif" font-size="9.00">config.js</text>
</a>
</g>
</g>
<!-- src/model/config.js&#45;&gt;src/model/axis.js -->
<g id="edge3" class="edge">
<title>src/model/config.js&#45;&gt;src/model/axis.js</title>
<path fill="none" stroke="#000000" stroke-width="2" stroke-opacity="0.200000" d="M262.3,-88C271.23,-84.88 281.35,-81.35 290.71,-78.09"/>
<polygon fill="#000000" fill-opacity="0.200000" stroke="#000000" stroke-width="2" stroke-opacity="0.200000" points="291.44,-80.06 296.42,-76.1 290.06,-76.09 291.44,-80.06"/>
</g>
<!-- src/model/config.js&#45;&gt;src/util.js -->
<g id="edge2" class="edge">
<title>src/model/config.js&#45;&gt;src/util.js</title>
<path fill="none" stroke="#000000" stroke-width="2" stroke-opacity="0.200000" d="M259.81,-106.09C267.12,-108.51 275.29,-110.79 283,-112 318.56,-117.59 328.21,-115.87 364,-112 375.95,-110.71 388.87,-108.18 400.23,-105.56"/>
<polygon fill="#000000" fill-opacity="0.200000" stroke="#000000" stroke-width="2" stroke-opacity="0.200000" points="401.02,-107.54 406.37,-104.11 400.05,-103.45 401.02,-107.54"/>
</g>
<!-- src/model/tics.js -->
<g id="node5" class="node">
<title>src/model/tics.js</title>
<g id="a_node5"><a xlink:href="src/model/tics.js" xlink:title="tics.js">
<path fill="#ffffcc" stroke="black" d="M344.5,-106C344.5,-106 302.5,-106 302.5,-106 299.5,-106 296.5,-103 296.5,-100 296.5,-100 296.5,-94 296.5,-94 296.5,-91 299.5,-88 302.5,-88 302.5,-88 344.5,-88 344.5,-88 347.5,-88 350.5,-91 350.5,-94 350.5,-94 350.5,-100 350.5,-100 350.5,-103 347.5,-106 344.5,-106"/>
<text text-anchor="middle" x="323.5" y="-94.8" font-family="Helvetica,sans-Serif" font-size="9.00">tics.js</text>
</a>
</g>
</g>
<!-- src/model/config.js&#45;&gt;src/model/tics.js -->
<g id="edge4" class="edge">
<title>src/model/config.js&#45;&gt;src/model/tics.js</title>
<path fill="none" stroke="#000000" stroke-width="2" stroke-opacity="0.200000" d="M262.77,-97C271.44,-97 281.18,-97 290.25,-97"/>
<polygon fill="#000000" fill-opacity="0.200000" stroke="#000000" stroke-width="2" stroke-opacity="0.200000" points="290.39,-99.1 296.39,-97 290.39,-94.9 290.39,-99.1"/>
</g>
<!-- src/model/tics.js&#45;&gt;src/util.js -->
<g id="edge9" class="edge">
<title>src/model/tics.js&#45;&gt;src/util.js</title>
<path fill="none" stroke="#000000" stroke-width="2" stroke-opacity="0.200000" d="M350.64,-97C365.52,-97 384.29,-97 400.1,-97"/>
<polygon fill="#000000" fill-opacity="0.200000" stroke="#000000" stroke-width="2" stroke-opacity="0.200000" points="400.22,-99.1 406.22,-97 400.22,-94.9 400.22,-99.1"/>
</g>
<!-- src/model/graphModel.js -->
<g id="node6" class="node">
<title>src/model/graphModel.js</title>
<g id="a_node6"><a xlink:href="src/model/graphModel.js" xlink:title="graphModel.js">
<path fill="#ffffcc" stroke="black" d="M176,-91C176,-91 113,-91 113,-91 110,-91 107,-88 107,-85 107,-85 107,-79 107,-79 107,-76 110,-73 113,-73 113,-73 176,-73 176,-73 179,-73 182,-76 182,-79 182,-79 182,-85 182,-85 182,-88 179,-91 176,-91"/>
<text text-anchor="middle" x="144.5" y="-79.8" font-family="Helvetica,sans-Serif" font-size="9.00">graphModel.js</text>
</a>
</g>
</g>
<!-- src/model/graphModel.js&#45;&gt;src/util.js -->
<g id="edge5" class="edge">
<title>src/model/graphModel.js&#45;&gt;src/util.js</title>
<path fill="none" stroke="#000000" stroke-width="2" stroke-opacity="0.200000" d="M179.71,-72.85C181.59,-71.71 183.38,-70.44 185,-69 191.25,-63.47 186.21,-56.86 193,-52 254.92,-7.72 292.18,-16.74 364,-42 387.06,-50.11 408.1,-69.63 420.61,-83.09"/>
<polygon fill="#000000" fill-opacity="0.200000" stroke="#000000" stroke-width="2" stroke-opacity="0.200000" points="419.24,-84.7 424.82,-87.74 422.35,-81.89 419.24,-84.7"/>
</g>
<!-- src/model/graphModel.js&#45;&gt;src/model/config.js -->
<g id="edge6" class="edge">
<title>src/model/graphModel.js&#45;&gt;src/model/config.js</title>
<path fill="none" stroke="#000000" stroke-width="2" stroke-opacity="0.200000" d="M182.21,-88.19C188.96,-89.32 195.95,-90.5 202.54,-91.61"/>
<polygon fill="#000000" fill-opacity="0.200000" stroke="#000000" stroke-width="2" stroke-opacity="0.200000" points="202.2,-93.69 208.47,-92.61 202.9,-89.54 202.2,-93.69"/>
</g>
<!-- src/model/lineData.js -->
<g id="node7" class="node">
<title>src/model/lineData.js</title>
<g id="a_node7"><a xlink:href="src/model/lineData.js" xlink:title="lineData.js">
<path fill="#ffffcc" stroke="black" d="M259.5,-76C259.5,-76 211.5,-76 211.5,-76 208.5,-76 205.5,-73 205.5,-70 205.5,-70 205.5,-64 205.5,-64 205.5,-61 208.5,-58 211.5,-58 211.5,-58 259.5,-58 259.5,-58 262.5,-58 265.5,-61 265.5,-64 265.5,-64 265.5,-70 265.5,-70 265.5,-73 262.5,-76 259.5,-76"/>
<text text-anchor="middle" x="235.5" y="-64.8" font-family="Helvetica,sans-Serif" font-size="9.00">lineData.js</text>
</a>
</g>
</g>
<!-- src/model/graphModel.js&#45;&gt;src/model/lineData.js -->
<g id="edge7" class="edge">
<title>src/model/graphModel.js&#45;&gt;src/model/lineData.js</title>
<path fill="none" stroke="#000000" stroke-width="2" stroke-opacity="0.200000" d="M182.21,-75.81C187.91,-74.85 193.78,-73.86 199.44,-72.91"/>
<polygon fill="#000000" fill-opacity="0.200000" stroke="#000000" stroke-width="2" stroke-opacity="0.200000" points="199.91,-74.96 205.48,-71.89 199.21,-70.82 199.91,-74.96"/>
</g>
<!-- src/model/lineData.js&#45;&gt;src/util.js -->
<g id="edge8" class="edge">
<title>src/model/lineData.js&#45;&gt;src/util.js</title>
<path fill="none" stroke="#000000" stroke-width="2" stroke-opacity="0.200000" d="M259.81,-57.91C267.12,-55.49 275.29,-53.21 283,-52 318.56,-46.41 329.51,-41.68 364,-52 384.7,-58.19 404.94,-72.87 417.99,-83.79"/>
<polygon fill="#000000" fill-opacity="0.200000" stroke="#000000" stroke-width="2" stroke-opacity="0.200000" points="416.87,-85.59 422.79,-87.91 419.6,-82.41 416.87,-85.59"/>
</g>
<!-- src/platform/platform.js -->
<g id="node8" class="node">
<title>src/platform/platform.js</title>
<g id="a_node8"><a xlink:href="src/platform/platform.js" xlink:title="platform.js">
<path fill="#ffffcc" stroke="black" d="M574,-276C574,-276 527,-276 527,-276 524,-276 521,-273 521,-270 521,-270 521,-264 521,-264 521,-261 524,-258 527,-258 527,-258 574,-258 574,-258 577,-258 580,-261 580,-264 580,-264 580,-270 580,-270 580,-273 577,-276 574,-276"/>
<text text-anchor="middle" x="550.5" y="-264.8" font-family="Helvetica,sans-Serif" font-size="9.00">platform.js</text>
</a>
</g>
</g>
<!-- src/plotta.js -->
<g id="node9" class="node">
<title>src/plotta.js</title>
<g id="a_node9"><a xlink:href="src/plotta.js" xlink:title="plotta.js">
<path fill="#ffffcc" stroke="black" d="M74.5,-125C74.5,-125 32.5,-125 32.5,-125 29.5,-125 26.5,-122 26.5,-119 26.5,-119 26.5,-113 26.5,-113 26.5,-110 29.5,-107 32.5,-107 32.5,-107 74.5,-107 74.5,-107 77.5,-107 80.5,-110 80.5,-113 80.5,-113 80.5,-119 80.5,-119 80.5,-122 77.5,-125 74.5,-125"/>
<text text-anchor="middle" x="53.5" y="-113.8" font-family="Helvetica,sans-Serif" font-size="9.00">plotta.js</text>
</a>
</g>
</g>
<!-- src/plotta.js&#45;&gt;src/util.js -->
<g id="edge12" class="edge">
<title>src/plotta.js&#45;&gt;src/util.js</title>
<path fill="none" stroke="#000000" stroke-width="2" stroke-opacity="0.200000" d="M57.85,-106.84C63.78,-91.95 77.56,-62.6 99,-47 133.96,-21.57 150.13,-27.6 193,-22 268.36,-12.15 294.46,8.67 364,-22 392.08,-34.38 413.63,-64.58 424.56,-82.66"/>
<polygon fill="#000000" fill-opacity="0.200000" stroke="#000000" stroke-width="2" stroke-opacity="0.200000" points="422.76,-83.73 427.61,-87.84 426.38,-81.61 422.76,-83.73"/>
</g>
<!-- src/plotta.js&#45;&gt;src/model/graphModel.js -->
<g id="edge10" class="edge">
<title>src/plotta.js&#45;&gt;src/model/graphModel.js</title>
<path fill="none" stroke="#000000" stroke-width="2" stroke-opacity="0.200000" d="M78.35,-106.89C89.31,-102.7 102.42,-97.69 114,-93.27"/>
<polygon fill="#000000" fill-opacity="0.200000" stroke="#000000" stroke-width="2" stroke-opacity="0.200000" points="115.04,-95.12 119.89,-91.02 113.54,-91.2 115.04,-95.12"/>
</g>
<!-- src/presenter/presenter.js -->
<g id="node10" class="node">
<title>src/presenter/presenter.js</title>
<g id="a_node10"><a xlink:href="src/presenter/presenter.js" xlink:title="presenter.js">
<path fill="#ffffcc" stroke="black" d="M171,-166C171,-166 118,-166 118,-166 115,-166 112,-163 112,-160 112,-160 112,-154 112,-154 112,-151 115,-148 118,-148 118,-148 171,-148 171,-148 174,-148 177,-151 177,-154 177,-154 177,-160 177,-160 177,-163 174,-166 171,-166"/>
<text text-anchor="middle" x="144.5" y="-154.8" font-family="Helvetica,sans-Serif" font-size="9.00">presenter.js</text>
</a>
</g>
</g>
<!-- src/plotta.js&#45;&gt;src/presenter/presenter.js -->
<g id="edge11" class="edge">
<title>src/plotta.js&#45;&gt;src/presenter/presenter.js</title>
<path fill="none" stroke="#000000" stroke-width="2" stroke-opacity="0.200000" d="M74.25,-125.1C87.16,-131.04 104.13,-138.87 118.05,-145.28"/>
<polygon fill="#000000" fill-opacity="0.200000" stroke="#000000" stroke-width="2" stroke-opacity="0.200000" points="117.47,-147.32 123.8,-147.93 119.23,-143.51 117.47,-147.32"/>
</g>
<!-- src/view/graphView.js -->
<g id="node11" class="node">
<title>src/view/graphView.js</title>
<g id="a_node11"><a xlink:href="src/view/graphView.js" xlink:title="graphView.js">
<path fill="#ffffcc" stroke="black" d="M264,-198C264,-198 207,-198 207,-198 204,-198 201,-195 201,-192 201,-192 201,-186 201,-186 201,-183 204,-180 207,-180 207,-180 264,-180 264,-180 267,-180 270,-183 270,-186 270,-186 270,-192 270,-192 270,-195 267,-198 264,-198"/>
<text text-anchor="middle" x="235.5" y="-186.8" font-family="Helvetica,sans-Serif" font-size="9.00">graphView.js</text>
</a>
</g>
</g>
<!-- src/plotta.js&#45;&gt;src/view/graphView.js -->
<g id="edge13" class="edge">
<title>src/plotta.js&#45;&gt;src/view/graphView.js</title>
<path fill="none" stroke="#000000" stroke-width="2" stroke-opacity="0.200000" d="M56.49,-125.21C60.8,-142.55 72.77,-179.67 99,-195 130.51,-213.41 173.52,-207.33 202.57,-199.67"/>
<polygon fill="#000000" fill-opacity="0.200000" stroke="#000000" stroke-width="2" stroke-opacity="0.200000" points="203.32,-201.64 208.55,-198.02 202.2,-197.59 203.32,-201.64"/>
</g>
<!-- src/presenter/presenter.js&#45;&gt;src/util.js -->
<g id="edge14" class="edge">
<title>src/presenter/presenter.js&#45;&gt;src/util.js</title>
<path fill="none" stroke="#000000" stroke-width="2" stroke-opacity="0.200000" d="M177.25,-154.52C233.55,-150.01 346.63,-140.44 364,-135 382.17,-129.31 400.95,-118.48 414.24,-109.83"/>
<polygon fill="#000000" fill-opacity="0.200000" stroke="#000000" stroke-width="2" stroke-opacity="0.200000" points="415.75,-111.35 419.59,-106.28 413.43,-107.85 415.75,-111.35"/>
</g>
<!-- src/view/graphView.js&#45;&gt;src/util.js -->
<g id="edge20" class="edge">
<title>src/view/graphView.js&#45;&gt;src/util.js</title>
<path fill="none" stroke="#000000" stroke-width="2" stroke-opacity="0.200000" d="M263.39,-179.85C265.7,-178.68 267.94,-177.4 270,-176 277.03,-171.23 275.61,-166.18 283,-162 315.02,-143.89 330.25,-159.63 364,-145 384,-136.33 404.09,-121.33 417.29,-110.4"/>
<polygon fill="#000000" fill-opacity="0.200000" stroke="#000000" stroke-width="2" stroke-opacity="0.200000" points="418.94,-111.76 422.17,-106.29 416.23,-108.55 418.94,-111.76"/>
</g>
<!-- src/view/graphCanvas.js -->
<g id="node17" class="node">
<title>src/view/graphCanvas.js</title>
<g id="a_node17"><a xlink:href="src/view/graphCanvas.js" xlink:title="graphCanvas.js">
<path fill="#ffffcc" stroke="black" d="M358,-216C358,-216 289,-216 289,-216 286,-216 283,-213 283,-210 283,-210 283,-204 283,-204 283,-201 286,-198 289,-198 289,-198 358,-198 358,-198 361,-198 364,-201 364,-204 364,-204 364,-210 364,-210 364,-213 361,-216 358,-216"/>
<text text-anchor="middle" x="323.5" y="-204.8" font-family="Helvetica,sans-Serif" font-size="9.00">graphCanvas.js</text>
</a>
</g>
</g>
<!-- src/view/graphView.js&#45;&gt;src/view/graphCanvas.js -->
<g id="edge21" class="edge">
<title>src/view/graphView.js&#45;&gt;src/view/graphCanvas.js</title>
<path fill="none" stroke="#000000" stroke-width="2" stroke-opacity="0.200000" d="M270.49,-196.11C272.51,-196.54 274.55,-196.96 276.61,-197.4"/>
<polygon fill="#000000" fill-opacity="0.200000" stroke="#000000" stroke-width="2" stroke-opacity="0.200000" points="276.48,-199.51 282.78,-198.69 277.34,-195.4 276.48,-199.51"/>
</g>
<!-- src/view/viewModel.js -->
<g id="node18" class="node">
<title>src/view/viewModel.js</title>
<g id="a_node18"><a xlink:href="src/view/viewModel.js" xlink:title="viewModel.js">
<path fill="#ffffcc" stroke="black" d="M352.5,-186C352.5,-186 294.5,-186 294.5,-186 291.5,-186 288.5,-183 288.5,-180 288.5,-180 288.5,-174 288.5,-174 288.5,-171 291.5,-168 294.5,-168 294.5,-168 352.5,-168 352.5,-168 355.5,-168 358.5,-171 358.5,-174 358.5,-174 358.5,-180 358.5,-180 358.5,-183 355.5,-186 352.5,-186"/>
<text text-anchor="middle" x="323.5" y="-174.8" font-family="Helvetica,sans-Serif" font-size="9.00">viewModel.js</text>
</a>
</g>
</g>
<!-- src/view/graphView.js&#45;&gt;src/view/viewModel.js -->
<g id="edge22" class="edge">
<title>src/view/graphView.js&#45;&gt;src/view/viewModel.js</title>
<path fill="none" stroke="#000000" stroke-width="2" stroke-opacity="0.200000" d="M270.49,-184.26C274.37,-183.72 278.36,-183.16 282.31,-182.61"/>
<polygon fill="#000000" fill-opacity="0.200000" stroke="#000000" stroke-width="2" stroke-opacity="0.200000" points="282.82,-184.66 288.48,-181.75 282.24,-180.5 282.82,-184.66"/>
</g>
<!-- src/view/ViewModelHelper.js -->
<g id="node12" class="node">
<title>src/view/ViewModelHelper.js</title>
<g id="a_node12"><a xlink:href="src/view/ViewModelHelper.js" xlink:title="ViewModelHelper.js">
<path fill="#ffffcc" stroke="black" d="M477,-186C477,-186 390,-186 390,-186 387,-186 384,-183 384,-180 384,-180 384,-174 384,-174 384,-171 387,-168 390,-168 390,-168 477,-168 477,-168 480,-168 483,-171 483,-174 483,-174 483,-180 483,-180 483,-183 480,-186 477,-186"/>
<text text-anchor="middle" x="433.5" y="-174.8" font-family="Helvetica,sans-Serif" font-size="9.00">ViewModelHelper.js</text>
</a>
</g>
</g>
<!-- src/view/canvasHelper.js -->
<g id="node13" class="node">
<title>src/view/canvasHelper.js</title>
<g id="a_node13"><a xlink:href="src/view/canvasHelper.js" xlink:title="canvasHelper.js">
<path fill="#ffffcc" stroke="black" d="M688,-216C688,-216 617,-216 617,-216 614,-216 611,-213 611,-210 611,-210 611,-204 611,-204 611,-201 614,-198 617,-198 617,-198 688,-198 688,-198 691,-198 694,-201 694,-204 694,-204 694,-210 694,-210 694,-213 691,-216 688,-216"/>
<text text-anchor="middle" x="652.5" y="-204.8" font-family="Helvetica,sans-Serif" font-size="9.00">canvasHelper.js</text>
</a>
</g>
</g>
<!-- src/view/drawHelper.js -->
<g id="node14" class="node">
<title>src/view/drawHelper.js</title>
<g id="a_node14"><a xlink:href="src/view/drawHelper.js" xlink:title="drawHelper.js">
<path fill="#ffffcc" stroke="black" d="M775,-201C775,-201 713,-201 713,-201 710,-201 707,-198 707,-195 707,-195 707,-189 707,-189 707,-186 710,-183 713,-183 713,-183 775,-183 775,-183 778,-183 781,-186 781,-189 781,-189 781,-195 781,-195 781,-198 778,-201 775,-201"/>
<text text-anchor="middle" x="744" y="-189.8" font-family="Helvetica,sans-Serif" font-size="9.00">drawHelper.js</text>
</a>
</g>
</g>
<!-- src/view/canvasHelper.js&#45;&gt;src/view/drawHelper.js -->
<g id="edge15" class="edge">
<title>src/view/canvasHelper.js&#45;&gt;src/view/drawHelper.js</title>
<path fill="none" stroke="#000000" stroke-width="2" stroke-opacity="0.200000" d="M694.06,-200.2C696.32,-199.82 698.6,-199.44 700.86,-199.06"/>
<polygon fill="#000000" fill-opacity="0.200000" stroke="#000000" stroke-width="2" stroke-opacity="0.200000" points="701.25,-201.13 706.82,-198.06 700.56,-196.98 701.25,-201.13"/>
</g>
<!-- src/view/canvasHelperFactory.js -->
<g id="node15" class="node">
<title>src/view/canvasHelperFactory.js</title>
<g id="a_node15"><a xlink:href="src/view/canvasHelperFactory.js" xlink:title="canvasHelperFactory.js">
<path fill="#ffffcc" stroke="black" d="M484,-216C484,-216 383,-216 383,-216 380,-216 377,-213 377,-210 377,-210 377,-204 377,-204 377,-201 380,-198 383,-198 383,-198 484,-198 484,-198 487,-198 490,-201 490,-204 490,-204 490,-210 490,-210 490,-213 487,-216 484,-216"/>
<text text-anchor="middle" x="433.5" y="-204.8" font-family="Helvetica,sans-Serif" font-size="9.00">canvasHelperFactory.js</text>
</a>
</g>
</g>
<!-- src/view/canvasHelperFactory.js&#45;&gt;src/platform/platform.js -->
<g id="edge16" class="edge">
<title>src/view/canvasHelperFactory.js&#45;&gt;src/platform/platform.js</title>
<path fill="none" stroke="#000000" stroke-width="2" stroke-opacity="0.200000" d="M450.12,-216.05C463.91,-223.93 484.61,-235.56 503,-245 509.7,-248.44 517.04,-252 523.86,-255.23"/>
<polygon fill="#000000" fill-opacity="0.200000" stroke="#000000" stroke-width="2" stroke-opacity="0.200000" points="523.13,-257.21 529.45,-257.86 524.91,-253.41 523.13,-257.21"/>
</g>
<!-- src/view/canvasHelperFactory.js&#45;&gt;src/view/canvasHelper.js -->
<g id="edge17" class="edge">
<title>src/view/canvasHelperFactory.js&#45;&gt;src/view/canvasHelper.js</title>
<path fill="none" stroke="#000000" stroke-width="2" stroke-opacity="0.200000" d="M490.1,-207C525.57,-207 571.01,-207 604.64,-207"/>
<polygon fill="#000000" fill-opacity="0.200000" stroke="#000000" stroke-width="2" stroke-opacity="0.200000" points="604.78,-209.1 610.78,-207 604.78,-204.9 604.78,-209.1"/>
</g>
<!-- src/view/osCanvasHelper.js -->
<g id="node16" class="node">
<title>src/view/osCanvasHelper.js</title>
<g id="a_node16"><a xlink:href="src/view/osCanvasHelper.js" xlink:title="osCanvasHelper.js">
<path fill="#ffffcc" stroke="black" d="M592,-190C592,-190 509,-190 509,-190 506,-190 503,-187 503,-184 503,-184 503,-178 503,-178 503,-175 506,-172 509,-172 509,-172 592,-172 592,-172 595,-172 598,-175 598,-178 598,-178 598,-184 598,-184 598,-187 595,-190 592,-190"/>
<text text-anchor="middle" x="550.5" y="-178.8" font-family="Helvetica,sans-Serif" font-size="9.00">osCanvasHelper.js</text>
</a>
</g>
</g>
<!-- src/view/canvasHelperFactory.js&#45;&gt;src/view/osCanvasHelper.js -->
<g id="edge18" class="edge">
<title>src/view/canvasHelperFactory.js&#45;&gt;src/view/osCanvasHelper.js</title>
<path fill="none" stroke="#000000" stroke-width="2" stroke-opacity="0.200000" d="M474.4,-197.98C483.85,-195.84 494.01,-193.55 503.71,-191.35"/>
<polygon fill="#000000" fill-opacity="0.200000" stroke="#000000" stroke-width="2" stroke-opacity="0.200000" points="504.28,-193.38 509.67,-190 503.36,-189.28 504.28,-193.38"/>
</g>
<!-- src/view/osWorker.js -->
<g id="node19" class="node">
<title>src/view/osWorker.js</title>
<g id="a_node19"><a xlink:href="src/view/osWorker.js" xlink:title="osWorker.js">
<path fill="#ffffcc" stroke="black" d="M679,-186C679,-186 626,-186 626,-186 623,-186 620,-183 620,-180 620,-180 620,-174 620,-174 620,-171 623,-168 626,-168 626,-168 679,-168 679,-168 682,-168 685,-171 685,-174 685,-174 685,-180 685,-180 685,-183 682,-186 679,-186"/>
<text text-anchor="middle" x="652.5" y="-174.8" font-family="Helvetica,sans-Serif" font-size="9.00">osWorker.js</text>
</a>
</g>
</g>
<!-- src/view/osCanvasHelper.js&#45;&gt;src/view/osWorker.js -->
<g id="edge23" class="edge">
<title>src/view/osCanvasHelper.js&#45;&gt;src/view/osWorker.js</title>
<path fill="none" stroke="#000000" stroke-width="2" stroke-opacity="0.200000" d="M598.28,-179.13C603.43,-178.92 608.62,-178.72 613.64,-178.51"/>
<polygon fill="#000000" fill-opacity="0.200000" stroke="#000000" stroke-width="2" stroke-opacity="0.200000" points="613.97,-180.6 619.89,-178.26 613.81,-176.41 613.97,-180.6"/>
</g>
<!-- src/view/graphCanvas.js&#45;&gt;src/view/canvasHelperFactory.js -->
<g id="edge19" class="edge">
<title>src/view/graphCanvas.js&#45;&gt;src/view/canvasHelperFactory.js</title>
<path fill="none" stroke="#000000" stroke-width="2" stroke-opacity="0.200000" d="M364.1,-207C366.15,-207 368.23,-207 370.32,-207"/>
<polygon fill="#000000" fill-opacity="0.200000" stroke="#000000" stroke-width="2" stroke-opacity="0.200000" points="370.64,-209.1 376.64,-207 370.64,-204.9 370.64,-209.1"/>
</g>
<!-- src/view/viewModel.js&#45;&gt;src/util.js -->
<g id="edge25" class="edge">
<title>src/view/viewModel.js&#45;&gt;src/util.js</title>
<path fill="none" stroke="#000000" stroke-width="2" stroke-opacity="0.200000" d="M356.55,-167.87C359.14,-166.71 361.66,-165.42 364,-164 387.5,-149.72 409.21,-125.94 421.65,-110.89"/>
<polygon fill="#000000" fill-opacity="0.200000" stroke="#000000" stroke-width="2" stroke-opacity="0.200000" points="423.35,-112.13 425.5,-106.15 420.09,-109.48 423.35,-112.13"/>
</g>
<!-- src/view/viewModel.js&#45;&gt;src/view/ViewModelHelper.js -->
<g id="edge26" class="edge">
<title>src/view/viewModel.js&#45;&gt;src/view/ViewModelHelper.js</title>
<path fill="none" stroke="#000000" stroke-width="2" stroke-opacity="0.200000" d="M358.67,-177C364.82,-177 371.37,-177 377.93,-177"/>
<polygon fill="#000000" fill-opacity="0.200000" stroke="#000000" stroke-width="2" stroke-opacity="0.200000" points="377.95,-179.1 383.95,-177 377.95,-174.9 377.95,-179.1"/>
</g>
<!-- src/view/osWorker.js&#45;&gt;src/view/drawHelper.js -->
<g id="edge24" class="edge">
<title>src/view/osWorker.js&#45;&gt;src/view/drawHelper.js</title>
<path fill="none" stroke="#000000" stroke-width="2" stroke-opacity="0.200000" d="M685.05,-182.29C690.12,-183.14 695.43,-184.03 700.7,-184.91"/>
<polygon fill="#000000" fill-opacity="0.200000" stroke="#000000" stroke-width="2" stroke-opacity="0.200000" points="700.58,-187.02 706.84,-185.94 701.27,-182.88 700.58,-187.02"/>
</g>
</g>
</svg>
